<svg width="16px" height="9px" viewBox="0 0 16 9" version="1.1" xmlns="http://www.w3.org/2000/svg" xmlns:xlink="http://www.w3.org/1999/xlink">
    <!-- Generator: Sketch 49.3 (51167) - http://www.bohemiancoding.com/sketch -->
    <desc>Created with Sketch.</desc>
    <defs></defs>
    <g id="Page-1" stroke="none" stroke-width="1" fill="none" fill-rule="evenodd" fill-opacity="0.900000036">
        <g id="2---Title-dropdown-Selection" transform="translate(-608.000000, -85.000000)" fill="#000000" fill-rule="nonzero">
            <g id="ic_down_24px-copy-2" transform="translate(616.000000, 90.000000) scale(1, -1) translate(-616.000000, -90.000000) translate(604.000000, 78.000000)">
                <g id="Artwork" transform="translate(4.000000, 8.000000)">
                    <path d="M8,9 C7.73473418,9.00030057 7.48029024,8.89485209 7.293,8.707 L0.293,1.707 C-0.0914529853,1.31551905 -0.0886082817,0.687357476 0.299374597,0.299374597 C0.687357476,-0.0886082817 1.31551905,-0.0914529853 1.707,0.293 L8,6.58594 L14.293,0.29294 C14.6841917,-0.0933426138 15.313858,-0.0913480386 15.7025947,0.297405131 C16.0913314,0.686158301 16.0932992,1.31582466 15.707,1.707 L8.707,8.707 C8.51970976,8.89485209 8.26526582,9.00030057 8,9 L8,9 Z" id="Shape"></path>
                </g>
            </g>
        </g>
    </g>
</svg>