
<svg width="11px" height="20px" viewBox="0 0 11 20" version="1.1" xmlns="http://www.w3.org/2000/svg" xmlns:xlink="http://www.w3.org/1999/xlink">
    <!-- Generator: Sketch 49.3 (51167) - http://www.bohemiancoding.com/sketch -->
    <desc>Created with Sketch.</desc>
    <defs></defs>
    <g id="4/24" stroke="none" stroke-width="1" fill="none" fill-rule="evenodd">
        <g id="15.-Edit-Personal-Information----unpopulated" transform="translate(-28.000000, -147.000000)" fill="#003087" fill-rule="nonzero">
            <g id="ic_down_24px" transform="translate(34.000000, 157.000000) rotate(90.000000) translate(-34.000000, -157.000000) translate(20.000000, 143.000000)">
                <g id="Artwork">
                    <g transform="translate(4.666667, 9.333333)">
                        <path d="M9.33333333,10.5 C9.02385655,10.5003507 8.72700528,10.3773274 8.5085,10.1581667 L0.341833333,1.9915 C-0.106695149,1.53477223 -0.103376329,0.801917055 0.349270363,0.349270363 C0.801917055,-0.103376329 1.53477223,-0.106695149 1.9915,0.341833333 L9.33333333,7.68359667 L16.6751667,0.341763333 C17.131557,-0.108899716 17.8661677,-0.106572712 18.3196938,0.346972653 C18.7732199,0.800518018 18.7755157,1.53512877 18.3248333,1.9915 L10.1581667,10.1581667 C9.93966139,10.3773274 9.64281012,10.5003507 9.33333333,10.5 L9.33333333,10.5 Z" id="Shape"></path>
                    </g>
                </g>
            </g>
        </g>
    </g>
</svg>